<svg xmlns="http://www.w3.org/2000/svg" xmlns:xlink="http://www.w3.org/1999/xlink" viewBox="104 74 22 20">
<defs>
	<radialGradient id="g1" cx="594.0571" cy="-355.9919" r="2.3818" gradientTransform="matrix(1 0 0 1 -475.8779 435.6558)" gradientUnits="userSpaceOnUse">
		<stop offset="0" stop-color="#FFFFFF"/>
		<stop offset="1" stop-color="#007CC3"/>
	</radialGradient>
</defs>
<!-- Órbita exterior -->
<path fill="#007CC3" d="M122.48,77.74c1.34,0.16,2.27,0.61,2.53,1.37c0.64,1.83-2.85,4.71-7.8,6.44c-4.94,1.72-9.47,1.64-10.11-0.19
	c-0.48-1.37,1.36-3.33,4.39-4.95c-4.24,1.97-6.96,4.5-6.38,6.17c0.71,2.02,5.98,2.02,11.77,0c5.79-2.02,9.92-5.3,9.22-7.32
	C125.78,78.29,124.43,77.79,122.48,77.74z">
	<animateTransform attributeName="transform" type="rotate" from="0 117 83" to="360 117 83" dur="6s" repeatCount="indefinite"/>
</path>
<!-- Órbita interior (cola) -->
<path fill="#1a1a1a" d="M122,90.1c-1.14,0.67-3.82-1.81-6-5.52c-2.17-3.71-3.01-7.27-1.88-7.93c0.38-0.22,0.93-0.09,1.58,0.31
	c-1.29-1.17-2.42-1.7-3.1-1.3c-1.37,0.8-0.36,5.09,2.27,9.58c2.62,4.49,5.87,7.47,7.24,6.67c0.68-0.4,0.77-1.64,0.38-3.33
	C122.53,89.33,122.38,89.88,122,90.1z">
	<animateTransform attributeName="transform" type="rotate" from="0 117 83" to="-360 117 83" dur="10s" repeatCount="indefinite"/>
</path>
<!-- Esfera central -->
<path fill="url(#g1)" d="M119.69,77.82c1.02,0.83,1.16,2.33,0.33,3.35c-0.84,1.02-2.34,1.16-3.35,0.33c-1.02-0.84-1.16-2.34-0.33-3.35
	C117.17,77.14,118.68,76.99,119.69,77.82z">
	<animateTransform attributeName="transform" type="scale" values="1;1.08;1" dur="2s" repeatCount="indefinite" additive="sum"/>
</path>
</svg>
