<?xml version="1.0" encoding="utf-8"?>
<!-- Generator: Adobe Illustrator 26.0.1, SVG Export Plug-In . SVG Version: 6.00 Build 0)  -->
<svg version="1.1" id="Layer_1" xmlns="http://www.w3.org/2000/svg" xmlns:xlink="http://www.w3.org/1999/xlink" x="0px" y="0px"
	 viewBox="0 0 592 840" style="enable-background:new 0 0 592 840;" xml:space="preserve">
<style type="text/css">
	.st0{font-family:'ArialMT';}
	.st1{font-size:5px;}
	.st2{fill:url(#SVGID_1_);}
	.st3{fill:#007CC3;}
</style>
<g>
	<text transform="matrix(1 0 0 1 32.3364 42.7061)" class="st0 st1"> </text>
</g>
<g>
	<g>
		<path d="M122,90.1c-1.14,0.67-3.82-1.81-6-5.52c-2.17-3.71-3.01-7.27-1.88-7.93c0.38-0.22,0.93-0.09,1.58,0.31
			c-1.29-1.17-2.42-1.7-3.1-1.3c-1.37,0.8-0.36,5.09,2.27,9.58c2.62,4.49,5.87,7.47,7.24,6.67c0.68-0.4,0.77-1.64,0.38-3.33
			C122.53,89.33,122.38,89.88,122,90.1z"/>
		
			<radialGradient id="SVGID_1_" cx="594.0571" cy="-355.9919" r="2.3818" gradientTransform="matrix(1 0 0 1 -475.8779 435.6558)" gradientUnits="userSpaceOnUse">
			<stop  offset="0" style="stop-color:#FFFFFF"/>
			<stop  offset="1" style="stop-color:#007CC3"/>
		</radialGradient>
		<path class="st2" d="M119.69,77.82c1.02,0.83,1.16,2.33,0.33,3.35c-0.84,1.02-2.34,1.16-3.35,0.33c-1.02-0.84-1.16-2.34-0.33-3.35
			C117.17,77.14,118.68,76.99,119.69,77.82z"/>
		<path class="st3" d="M122.48,77.74c1.34,0.16,2.27,0.61,2.53,1.37c0.64,1.83-2.85,4.71-7.8,6.44c-4.94,1.72-9.47,1.64-10.11-0.19
			c-0.48-1.37,1.36-3.33,4.39-4.95c-4.24,1.97-6.96,4.5-6.38,6.17c0.71,2.02,5.98,2.02,11.77,0c5.79-2.02,9.92-5.3,9.22-7.32
			C125.78,78.29,124.43,77.79,122.48,77.74z"/>
		<path class="st3" d="M98.45,98.9c0-0.37-0.3-0.67-0.67-0.67c-0.01,0-0.02,0-0.02,0H95.8c-0.01,0-0.02,0-0.02,0
			c-0.37,0-0.67,0.3-0.67,0.67c0,0.37,0.3,0.67,0.67,0.67v0h1.35v1h-1.66v0c-0.01,0-0.01,0-0.02,0c-0.93,0-1.68-0.75-1.68-1.68
			c0-0.93,0.75-1.68,1.68-1.68c0,0,0,0,0.01,0v0h2.34l0,0c0,0,0,0,0.01,0c0.37,0,0.67-0.3,0.67-0.67c0-0.37-0.3-0.67-0.67-0.67
			c-0.03,0-0.06,0-0.1,0.01h-2.22v-0.01c-0.01,0-0.03,0-0.05,0c-1.67,0-3.02,1.35-3.02,3.02c0,1.67,1.35,3.02,3.02,3.02
			c0.02,0,0.03,0,0.05,0v0h2.3v0c0.37,0,0.66-0.29,0.67-0.66h0.01L98.45,98.9L98.45,98.9C98.45,98.91,98.45,98.9,98.45,98.9z"/>
		<path class="st3" d="M91.07,96.67c0-0.04,0.01-0.08,0.01-0.12c0-0.37-0.3-0.67-0.67-0.67c-0.03,0-0.06,0-0.09,0.01H88.1v-0.01
			c-0.02,0-0.03,0-0.05,0c-1.67,0-3.02,1.35-3.02,3.02c0,0,0,0.01,0,0.01h0v2.34h0c0,0,0,0,0,0c0,0.37,0.3,0.67,0.67,0.67
			c0.37,0,0.67-0.3,0.67-0.67c0-0.04,0-0.08-0.01-0.12v-2.15h0.01c0-0.03,0-0.06,0-0.09c0-0.93,0.75-1.68,1.68-1.68
			c0,0,0.01,0,0.01,0v0h1.67v1.04h-2.01v0c-0.37,0-0.67,0.3-0.67,0.67c0,0.37,0.3,0.67,0.67,0.67v0.01h2.01v1.64h0c0,0,0,0,0,0
			c0,0.37,0.3,0.67,0.67,0.67c0.37,0,0.67-0.3,0.67-0.67c0-0.04-0.01-0.08-0.01-0.12V96.67z"/>
		<path class="st3" d="M104.15,98.24L104.15,98.24l-2.52,0v0.01c-0.28,0-0.51-0.23-0.51-0.51c0-0.28,0.22-0.5,0.5-0.52v0.01h3.54
			l0,0c0,0,0,0,0.01,0c0.37,0,0.67-0.3,0.67-0.67c0-0.37-0.3-0.67-0.67-0.67c-0.03,0-0.06,0-0.09,0.01h-3.37v-0.01
			c-0.02,0-0.04,0-0.06,0c-1.02,0-1.85,0.83-1.85,1.85c0,1.02,0.83,1.85,1.85,1.85c0.02,0,0.04,0,0.06,0v0h2.42v0.01
			c0.22,0.06,0.39,0.26,0.39,0.5c0,0.23-0.16,0.43-0.37,0.49h-3.65c-0.01,0-0.02,0-0.02,0c-0.37,0-0.67,0.3-0.67,0.67
			c0,0.37,0.3,0.67,0.67,0.67c0,0,0.01,0,0.01,0v0h3.65v0.01c0.96-0.06,1.72-0.87,1.72-1.84C105.84,99.11,105.1,98.32,104.15,98.24z
			"/>
		<g>
			<path d="M107.47,101.96l1.82-5.96h0.95l1.85,5.96h-0.76l-0.51-1.73h-2.12l-0.49,1.73H107.47z M108.88,99.64h1.78l-0.89-3.12
				L108.88,99.64z"/>
			<path d="M112.95,101.96v-5.96h1l2.32,5.11l-0.07-5.11h0.72v5.96h-0.95l-2.36-5.26l0.06,5.26H112.95z"/>
			<path d="M117.79,101.96l1.82-5.96h0.95l1.85,5.96h-0.76l-0.51-1.73h-2.12l-0.49,1.73H117.79z M119.21,99.64h1.78l-0.89-3.12
				L119.21,99.64z"/>
			<path d="M123.27,101.96v-5.96h0.75v5.32h2.67v0.64H123.27z"/>
			<path d="M127.64,101.96v-5.96h0.77v5.96H127.64z"/>
			<path d="M130.97,101.96v-5.34h-1.7v-0.61h4.08v0.61h-1.61v5.34H130.97z"/>
			<path d="M134.2,101.96v-5.96h0.77v5.96H134.2z"/>
			<path d="M139.46,99.78h0.73c-0.01,0.75-0.19,1.33-0.53,1.73c-0.34,0.4-0.84,0.6-1.49,0.6c-0.69,0-1.2-0.25-1.53-0.76
				c-0.33-0.51-0.5-1.29-0.5-2.35c0-1.1,0.16-1.9,0.49-2.4c0.33-0.49,0.86-0.74,1.59-0.74c0.61,0,1.08,0.16,1.42,0.47
				c0.33,0.32,0.5,0.76,0.5,1.35v0.07h-0.72c0-0.41-0.11-0.73-0.32-0.96c-0.21-0.23-0.51-0.35-0.88-0.35c-0.46,0-0.78,0.2-0.98,0.59
				c-0.2,0.39-0.3,1.05-0.3,1.96c0,0.89,0.1,1.53,0.31,1.91c0.21,0.38,0.55,0.57,1.02,0.57c0.38,0,0.67-0.14,0.88-0.41
				c0.21-0.28,0.31-0.67,0.31-1.18V99.78z"/>
			<path d="M141,101.96l1.82-5.96h0.95l1.85,5.96h-0.76l-0.51-1.73h-2.12l-0.49,1.73H141z M142.41,99.64h1.78l-0.89-3.12
				L142.41,99.64z"/>
		</g>
	</g>
</g>
</svg>
